<svg width="1172" height="680" viewBox="0 0 1172 680" fill="none" xmlns="http://www.w3.org/2000/svg">
<g opacity="0.05">
<path d="M1941.5 -298C1941.5 -26.6179 1687.04 193.5 1373 193.5C1058.96 193.5 804.5 -26.6179 804.5 -298C804.5 -569.382 1058.96 -789.5 1373 -789.5C1687.04 -789.5 1941.5 -569.382 1941.5 -298Z" stroke="black"/>
<path d="M1924.5 -298C1924.5 -26.6179 1670.04 193.5 1356 193.5C1041.96 193.5 787.5 -26.6179 787.5 -298C787.5 -569.382 1041.96 -789.5 1356 -789.5C1670.04 -789.5 1924.5 -569.382 1924.5 -298Z" stroke="black"/>
<path d="M1905.5 -298C1905.5 -26.6179 1651.04 193.5 1337 193.5C1022.96 193.5 768.5 -26.6179 768.5 -298C768.5 -569.382 1022.96 -789.5 1337 -789.5C1651.04 -789.5 1905.5 -569.382 1905.5 -298Z" stroke="black"/>
<path d="M1890.5 -291C1890.5 -19.6179 1636.04 200.5 1322 200.5C1007.96 200.5 753.5 -19.6179 753.5 -291C753.5 -562.382 1007.96 -782.5 1322 -782.5C1636.04 -782.5 1890.5 -562.382 1890.5 -291Z" stroke="black"/>
<path d="M1869.5 -291C1869.5 -19.6179 1615.04 200.5 1301 200.5C986.955 200.5 732.5 -19.6179 732.5 -291C732.5 -562.382 986.955 -782.5 1301 -782.5C1615.04 -782.5 1869.5 -562.382 1869.5 -291Z" stroke="black"/>
<path d="M1861.5 -291C1861.5 -13.543 1601.22 211.5 1280 211.5C958.775 211.5 698.5 -13.543 698.5 -291C698.5 -568.457 958.775 -793.5 1280 -793.5C1601.22 -793.5 1861.5 -568.457 1861.5 -291Z" stroke="black"/>
<path d="M1865.5 -300C1865.5 -17.5725 1600.52 211.5 1273.5 211.5C946.476 211.5 681.5 -17.5725 681.5 -300C681.5 -582.428 946.476 -811.5 1273.5 -811.5C1600.52 -811.5 1865.5 -582.428 1865.5 -300Z" stroke="black"/>
<path d="M1830.41 -270.703C1820.71 15.709 1548.01 239.03 1221.18 227.961C894.348 216.891 637.384 -24.3691 647.085 -310.781C656.785 -597.193 929.485 -820.514 1256.31 -809.444C1583.14 -798.375 1840.11 -557.115 1830.41 -270.703Z" stroke="black"/>
<path d="M1814.41 -253.703C1804.71 32.709 1532.01 256.03 1205.18 244.961C878.348 233.891 621.384 -7.36906 631.085 -293.781C640.785 -580.193 913.485 -803.514 1240.31 -792.444C1567.14 -781.375 1824.11 -540.115 1814.41 -253.703Z" stroke="black"/>
<path d="M1786.41 -237.703C1776.71 48.709 1504.01 272.03 1177.18 260.961C850.348 249.891 593.384 8.63094 603.085 -277.781C612.785 -564.193 885.485 -787.514 1212.31 -776.444C1539.14 -765.375 1796.11 -524.115 1786.41 -237.703Z" stroke="black"/>
<path d="M1751.41 -219.703C1741.71 66.709 1469.01 290.03 1142.18 278.961C815.348 267.891 558.384 26.6309 568.085 -259.781C577.785 -546.193 850.485 -769.514 1177.31 -758.444C1504.14 -747.375 1761.11 -506.115 1751.41 -219.703Z" stroke="black"/>
<path d="M1710.96 -177.237C1701.3 107.876 1429.84 330.185 1104.49 319.166C779.147 308.147 523.348 67.9799 533.004 -217.133C542.661 -502.246 814.123 -724.555 1139.47 -713.535C1464.82 -702.516 1720.62 -462.349 1710.96 -177.237Z" stroke="black"/>
<path d="M1725.64 -160.465C1715.5 138.885 1430.48 372.29 1088.9 360.721C747.31 349.151 478.738 96.997 488.877 -202.353C499.016 -501.704 784.033 -735.109 1125.62 -723.539C1467.2 -711.97 1735.78 -459.816 1725.64 -160.465Z" stroke="black"/>
<path d="M1850.72 -171.898C1858.22 -22.3461 1785.68 117.063 1662.27 221.559C1538.86 326.054 1364.59 395.614 1168.72 405.442C972.848 415.269 792.494 363.501 659.243 271.882C525.992 180.264 439.865 48.815 432.362 -100.737C424.858 -250.289 497.396 -389.699 620.807 -494.194C744.219 -598.69 918.486 -668.25 1114.36 -678.077C1310.23 -687.904 1490.58 -636.136 1623.84 -544.518C1757.09 -452.899 1843.21 -321.451 1850.72 -171.898Z" stroke="black"/>
<path d="M1932.48 -509.355C1985.41 -35.4389 1648.18 391.192 1179.27 443.561C710.356 495.93 287.314 154.208 234.386 -319.708C181.458 -793.624 518.689 -1220.25 987.599 -1272.62C1456.51 -1324.99 1879.55 -983.272 1932.48 -509.355Z" stroke="black"/>
<path d="M1857.48 -463.355C1910.41 10.5611 1573.18 437.192 1104.27 489.561C635.356 541.93 212.314 200.208 159.386 -273.708C106.458 -747.624 443.689 -1174.25 912.599 -1226.62C1381.51 -1278.99 1804.55 -937.272 1857.48 -463.355Z" stroke="black"/>
<path d="M1809.48 -403.355C1862.41 70.5611 1525.18 497.192 1056.27 549.561C587.356 601.93 164.314 260.208 111.386 -213.708C58.4581 -687.624 395.689 -1114.25 864.599 -1166.62C1333.51 -1218.99 1756.55 -877.272 1809.48 -403.355Z" stroke="black"/>
<path d="M1794.48 -368.355C1847.41 105.561 1510.18 532.192 1041.27 584.561C572.356 636.93 149.314 295.208 96.3862 -178.708C43.4581 -652.624 380.689 -1079.25 849.599 -1131.62C1318.51 -1183.99 1741.55 -842.272 1794.48 -368.355Z" stroke="black"/>
</g>
</svg>
